HIERARCHY
ROOT hip
{
  OFFSET 0 0 0
  CHANNELS 6 Xposition Yposition Zposition Zrotation Yrotation Xrotation
  JOINT abdomen
  {
    OFFSET 0 20.6881 -0.73152
    CHANNELS 3 Zrotation Xrotation Yrotation
    JOINT chest
    {
      OFFSET 0 11.7043 -0.48768
      CHANNELS 3 Zrotation Xrotation Yrotation
      JOINT neck
      {
        OFFSET 0 22.1894 -2.19456
        CHANNELS 3 Zrotation Xrotation Yrotation
        JOINT head
        {
          OFFSET -0.24384 7.07133 1.2192
          CHANNELS 3 Zrotation Xrotation Yrotation
          JOINT leftEye
          {
            OFFSET 4.14528 8.04674 8.04672
            CHANNELS 3 Zrotation Xrotation Yrotation
            End Site
            {
              OFFSET 1 0 0
            }
          }
          JOINT rightEye
          {
            OFFSET -3.6576 8.04674 8.04672
            CHANNELS 3 Zrotation Xrotation Yrotation
            End Site
            {
              OFFSET 1 0 0
            }
          }
        }
      }
      JOINT rCollar
      {
        OFFSET -2.68224 19.2634 -4.8768
        CHANNELS 3 Zrotation Xrotation Yrotation
        JOINT rShldr
        {
          OFFSET -8.77824 -1.95073 1.46304
          CHANNELS 3 Zrotation Xrotation Yrotation
          JOINT rForeArm
          {
            OFFSET -28.1742 -1.7115 0.48768
            CHANNELS 3 Zrotation Xrotation Yrotation
            JOINT rHand
            {
              OFFSET -22.5879 0.773209 7.07136
              CHANNELS 3 Zrotation Xrotation Yrotation
              JOINT rThumb1
              {
                OFFSET -1.2192 -0.487915 3.41376
                CHANNELS 3 Zrotation Xrotation Yrotation
                JOINT rThumb2
                {
                  OFFSET -3.37035 -0.52449 3.41376
                  CHANNELS 3 Zrotation Xrotation Yrotation
                  End Site
                  {
                    OFFSET -1.78271 -1.18214 1.43049
                  }
                }
              }
              JOINT rIndex1
              {
                OFFSET -7.75947 0.938293 5.60832
                CHANNELS 3 Zrotation Xrotation Yrotation
                JOINT rIndex2
                {
                  OFFSET -2.54057 -0.884171 1.56538
                  CHANNELS 3 Zrotation Xrotation Yrotation
                  End Site
                  {
                    OFFSET -1.62519 -0.234802 1.16502
                  }
                }
              }
              JOINT rMid1
              {
                OFFSET -8.24714 1.18213 3.41376
                CHANNELS 3 Zrotation Xrotation Yrotation
                JOINT rMid2
                {
                  OFFSET -3.10165 -0.590103 1.0647
                  CHANNELS 3 Zrotation Xrotation Yrotation
                  End Site
                  {
                    OFFSET -2.48547 -0.328903 0.83742
                  }
                }
              }
              JOINT rRing1
              {
                OFFSET -8.82822 0.546677 1.51678
                CHANNELS 3 Zrotation Xrotation Yrotation
                JOINT rRing2
                {
                  OFFSET -2.60934 -0.819778 -0.0198488
                  CHANNELS 3 Zrotation Xrotation Yrotation
                  End Site
                  {
                    OFFSET -2.33842 -0.294052 0.168128
                  }
                }
              }
              JOINT rPinky1
              {
                OFFSET -8.27202 -0.0477905 -0.4584
                CHANNELS 3 Zrotation Xrotation Yrotation
                JOINT rPinky2
                {
                  OFFSET -1.82734 -0.647385 -0.700984
                  CHANNELS 3 Zrotation Xrotation Yrotation
                  End Site
                  {
                    OFFSET -1.69225 -0.51767 -0.607171
                  }
                }
              }
            }
          }
        }
      }
      JOINT lCollar
      {
        OFFSET 2.68224 19.2634 -4.8768
        CHANNELS 3 Zrotation Xrotation Yrotation
        JOINT lShldr
        {
          OFFSET 8.77824 -1.95073 1.46304
          CHANNELS 3 Zrotation Xrotation Yrotation
          JOINT lForeArm
          {
            OFFSET 28.1742 -1.7115 0.48768
            CHANNELS 3 Zrotation Xrotation Yrotation
            JOINT lHand
            {
              OFFSET 22.5879 0.773209 7.07136
              CHANNELS 3 Zrotation Xrotation Yrotation
              JOINT lThumb1
              {
                OFFSET 1.2192 -0.487915 3.41376
                CHANNELS 3 Zrotation Xrotation Yrotation
                JOINT lThumb2
                {
                  OFFSET 3.37035 -0.52449 3.41376
                  CHANNELS 3 Zrotation Xrotation Yrotation
                  End Site
                  {
                    OFFSET 1.78271 -1.18214 1.43049
                  }
                }
              }
              JOINT lIndex1
              {
                OFFSET 7.75947 0.938293 5.60832
                CHANNELS 3 Zrotation Xrotation Yrotation
                JOINT lIndex2
                {
                  OFFSET 2.54057 -0.884171 1.56538
                  CHANNELS 3 Zrotation Xrotation Yrotation
                  End Site
                  {
                    OFFSET 1.62519 -0.234802 1.16502
                  }
                }
              }
              JOINT lMid1
              {
                OFFSET 8.24714 1.18213 3.41376
                CHANNELS 3 Zrotation Xrotation Yrotation
                JOINT lMid2
                {
                  OFFSET 3.10165 -0.590103 1.0647
                  CHANNELS 3 Zrotation Xrotation Yrotation
                  End Site
                  {
                    OFFSET 2.48547 -0.328903 0.83742
                  }
                }
              }
              JOINT lRing1
              {
                OFFSET 8.82822 0.546677 1.51678
                CHANNELS 3 Zrotation Xrotation Yrotation
                JOINT lRing2
                {
                  OFFSET 2.60934 -0.819778 -0.0198488
                  CHANNELS 3 Zrotation Xrotation Yrotation
                  End Site
                  {
                    OFFSET 2.33842 -0.294052 0.168128
                  }
                }
              }
              JOINT lPinky1
              {
                OFFSET 8.27202 -0.0477905 -0.4584
                CHANNELS 3 Zrotation Xrotation Yrotation
                JOINT lPinky2
                {
                  OFFSET 1.82734 -0.647385 -0.700984
                  CHANNELS 3 Zrotation Xrotation Yrotation
                  End Site
                  {
                    OFFSET 1.69225 -0.51767 -0.607171
                  }
                }
              }
            }
          }
        }
      }
    }
  }
  JOINT rButtock
  {
    OFFSET -8.77824 4.35084 1.2192
    CHANNELS 3 Zrotation Xrotation Yrotation
    JOINT rThigh
    {
      OFFSET 0 -1.70687 -2.19456
      CHANNELS 3 Zrotation Xrotation Yrotation
      JOINT rShin
      {
        OFFSET 0 -36.8199 0.73152
        CHANNELS 3 Zrotation Xrotation Yrotation
        JOINT rFoot
        {
          OFFSET 0.73152 -45.1104 -5.12064
          CHANNELS 3 Zrotation Xrotation Yrotation
          End Site
          {
            OFFSET -1.1221 -3.69964 12.103
          }
        }
      }
    }
  }
  JOINT lButtock
  {
    OFFSET 8.77824 4.35084 1.2192
    CHANNELS 3 Zrotation Xrotation Yrotation
    JOINT lThigh
    {
      OFFSET 0 -1.70687 -2.19456
      CHANNELS 3 Zrotation Xrotation Yrotation
      JOINT lShin
      {
        OFFSET 0 -36.8199 0.73152
        CHANNELS 3 Zrotation Xrotation Yrotation
        JOINT lFoot
        {
          OFFSET -0.73152 -45.1104 -5.12064
          CHANNELS 3 Zrotation Xrotation Yrotation
          End Site
          {
            OFFSET 1.1221 -3.69964 12.103
          }
        }
      }
    }
  }
}
MOTION
Frames:	9
Frame Time:	0.00833333
-165.733 85.4571 14.129 0.0 0.0 0.0 1.92988 -0.00172184 0.0523824 0.532079 0.00507099 0.0921221 1.00872e-14 7.95139e-16 -4.96962e-16 3.07464e-14 9.54166e-15 -1.4707e-15 -0.0 0.0 0.0 -0.0 0.0 0.0 4.86909e-15 6.21202e-18 -9.93923e-17 1.08932e-13 3.41661e-16 -3.37934e-15 1.84745e-12 -5.41688e-13 -9.22361e-14 2.10908e-11 5.74363e-13 -9.47805e-13 4.97567e-11 6.72389e-14 -2.23911e-12 8.59235e-11 1.145e-13 -3.87233e-12 4.97622e-11 6.63941e-14 -2.23911e-12 7.73091 5.47488 0.417314 4.97553e-11 6.67917e-14 -2.23911e-12 2.90554 0.965183 0.102902 4.97612e-11 6.70898e-14 -2.2407e-12 10.2786 0.731801 0.0259123 4.97516e-11 6.95746e-14 -2.22639e-12 2.22167 -0.733487 -0.20892 4.7723e-15 2.71776e-18 -2.98177e-16 1.03826e-13 6.83322e-17 -5.76476e-15 1.83607e-12 5.55007e-13 -1.08139e-13 2.10752e-11 -5.24195e-13 -9.22361e-13 4.97058e-11 6.35206e-14 -2.25501e-12 8.58404e-11 1.01778e-13 -3.88902e-12 4.97017e-11 6.40087e-14 -2.24229e-12 -7.73091 5.47488 -0.417314 4.97061e-11 6.30147e-14 -2.26137e-12 -2.90554 0.965183 -0.102902 4.97011e-11 6.40087e-14 -2.25183e-12 -10.2786 0.731801 -0.0259123 4.97149e-11 6.71892e-14 -2.25819e-12 -2.22167 -0.733487 0.20892 -2.03217e-16 0.0 -3.88251e-19 1.95948 -7.26116 -0.192017 0.00412064 7.58527 0.107063 -0.521294 -0.330665 0.0523289 2.03217e-16 0.0 3.88251e-19 0.976687 -1.92613 0.000869695 0.00898709 -2.0786 0.0740623 0.487865 3.99809 -0.136736
-158.881 85.5832 5.42803 37.8151 84.1087 37.3784 -0.453238 0.987047 1.23128 1.04972 -0.858337 0.458953 1.56355 -1.24291 0.781682 -0.867796 2.17065 1.21775 -0.0 0.0 0.0 -0.0 0.0 0.0 1.63707e-14 8.4786e-13 1.04156e-14 22.6171 9.11934 -0.559754 -4.43182 -2.0577 6.87372 0.00254315 1.11988 0.15728 1.39734e-09 9.60825e-11 -1.87358e-09 2.40603e-09 1.66575e-10 -3.24643e-09 1.39735e-09 9.60809e-11 -1.87358e-09 7.73091 5.47488 0.417314 1.39734e-09 9.60803e-11 -1.87358e-09 2.90554 0.965183 0.102902 1.39734e-09 9.60805e-11 -1.87358e-09 10.2786 0.731801 0.0259123 1.39734e-09 9.60831e-11 -1.87357e-09 2.22167 -0.733487 -0.20892 1.62971e-14 8.47857e-13 1.02599e-14 -21.7261 9.8916 -0.279435 3.274 -1.33895 -5.26378 -0.0347108 4.1349 -0.575669 -2.87765e-09 9.27711e-10 1.47818e-09 -4.95466e-09 1.60439e-09 2.59186e-09 -2.87765e-09 9.27713e-10 1.47819e-09 -7.73091 5.47488 -0.417314 -2.87765e-09 9.27713e-10 1.47817e-09 -2.90554 0.965183 -0.102902 -2.87766e-09 9.27714e-10 1.47818e-09 -10.2786 0.731801 -0.0259123 -2.87764e-09 9.27716e-10 1.47817e-09 -2.22167 -0.733487 0.20892 -2.03217e-16 0.0 -3.88251e-19 -1.73343 -4.77028 -1.05104 0.00227 8.0147 0.114183 -0.523781 -4.3435 -0.689622 2.03217e-16 0.0 3.88251e-19 0.627988 1.38518 0.411591 0.00487291 -2.52617 0.0479477 0.707973 0.265723 4.03502
-158.889 85.579 5.38897 39.2193 84.0359 38.8211 -3.01974 2.02866 2.47603 1.61182 -1.77069 0.84636 3.2484 -2.55282 1.61031 -1.88171 4.46077 2.51489 -0.0 0.0 0.0 -0.0 0.0 0.0 2.95911e-14 1.71474e-12 1.97076e-14 46.7266 18.7639 -1.201 -8.58539 -4.13512 14.1703 -0.00145472 2.29769 0.322901 2.86465e-09 2.03121e-10 -3.91586e-09 4.93228e-09 3.52137e-10 -6.78518e-09 2.86465e-09 2.03118e-10 -3.91587e-09 7.73091 5.47488 0.417314 2.86465e-09 2.03116e-10 -3.91586e-09 2.90554 0.965183 0.102902 2.86465e-09 2.03117e-10 -3.91586e-09 10.2786 0.731801 0.0259123 2.86464e-09 2.03119e-10 -3.91586e-09 2.22167 -0.733487 -0.20892 2.95431e-14 1.71474e-12 1.95989e-14 -44.5871 20.3372 -0.603021 6.4672 -2.71577 -10.8349 0.0198782 8.50984 -1.19501 -6.06165e-09 1.93705e-09 3.08052e-09 -1.04372e-08 3.34999e-09 5.40158e-09 -6.06166e-09 1.93706e-09 3.08053e-09 -7.73091 5.47488 -0.417314 -6.06165e-09 1.93706e-09 3.08051e-09 -2.90554 0.965183 -0.102902 -6.06166e-09 1.93706e-09 3.08052e-09 -10.2786 0.731801 -0.0259123 -6.06165e-09 1.93706e-09 3.08052e-09 -2.22167 -0.733487 0.20892 -2.03217e-16 0.0 -3.88251e-19 -5.56061 -2.13912 -1.95683 0.000198603 8.46929 0.121741 -0.640335 -8.58214 -1.48554 2.03217e-16 0.0 3.88251e-19 0.203319 4.88315 0.848058 0.000128749 -2.99855 0.0203007 1.53022 -3.63839 8.46244
-158.886 85.5838 5.35236 40.529 83.9689 40.1193 -5.34158 2.95945 3.59334 2.11819 -2.58467 1.19368 4.79253 -3.72595 2.34946 -2.88151 6.50014 3.67429 -0.0 0.0 0.0 -0.0 0.0 0.0 3.93738e-14 2.54357e-12 3.14456e-14 68.4428 27.3469 -1.86672 -11.8435 -5.81845 20.7194 -0.0108421 3.35953 0.472563 4.09251e-09 2.88113e-10 -5.61625e-09 7.04625e-09 4.99497e-10 -9.73155e-09 4.09251e-09 2.8811e-10 -5.61626e-09 7.73091 5.47488 0.417314 4.09251e-09 2.88107e-10 -5.61625e-09 2.90554 0.965183 0.102902 4.09251e-09 2.88107e-10 -5.61625e-09 10.2786 0.731801 0.0259123 4.0925e-09 2.8811e-10 -5.61624e-09 2.22167 -0.733487 -0.20892 3.93468e-14 2.54357e-12 3.13761e-14 -64.8519 29.6718 -0.950485 9.09289 -3.88147 -15.8242 0.150162 12.3996 -1.76367 -8.73236e-09 2.78301e-09 4.43905e-09 -1.50357e-08 4.81297e-09 7.78335e-09 -8.73236e-09 2.78301e-09 4.43905e-09 -7.73091 5.47488 -0.417314 -8.73235e-09 2.78301e-09 4.43904e-09 -2.90554 0.965183 -0.102902 -8.73237e-09 2.78301e-09 4.43905e-09 -10.2786 0.731801 -0.0259123 -8.73236e-09 2.78301e-09 4.43904e-09 -2.22167 -0.733487 0.20892 -2.03217e-16 0.0 -3.88251e-19 -8.89548 0.208909 -2.76126 -0.00175554 8.87356 0.128488 -0.846721 -12.3611 -2.21905 2.03217e-16 0.0 3.88251e-19 -0.212904 8.00605 1.24481 -0.00458141 -3.42132 -0.00433148 2.774 -7.0289 12.473
-158.87 85.5957 5.33711 40.8998 83.95 40.4202 -6.96649 3.61794 4.38806 2.46191 -3.15316 1.43977 5.91311 -4.55973 2.86076 -3.64809 7.92404 4.46926 -0.0 0.0 0.0 -0.0 0.0 0.0 4.05622e-14 3.27726e-12 4.92986e-14 83.7393 33.2864 -2.41654 -13.8764 -6.85514 25.3057 -0.0209809 4.13153 0.581667 4.72175e-09 3.17992e-10 -6.46189e-09 8.12952e-09 5.51349e-10 -1.11969e-08 4.72176e-09 3.17988e-10 -6.46189e-09 7.73091 5.47488 0.417314 4.72175e-09 3.17985e-10 -6.46189e-09 2.90554 0.965183 0.102902 4.72175e-09 3.17986e-10 -6.46189e-09 10.2786 0.731801 0.0259123 4.72174e-09 3.17988e-10 -6.46188e-09 2.22167 -0.733487 -0.20892 4.05447e-14 3.27726e-12 4.92489e-14 -78.8646 36.2313 -1.25453 10.809 -4.64773 -19.3276 0.287344 15.0814 -2.17042 -1.01198e-08 3.22049e-09 5.18803e-09 -1.74241e-08 5.56941e-09 9.09524e-09 -1.01198e-08 3.2205e-09 5.18803e-09 -7.73091 5.47488 -0.417314 -1.01198e-08 3.2205e-09 5.18802e-09 -2.90554 0.965183 -0.102902 -1.01198e-08 3.2205e-09 5.18803e-09 -10.2786 0.731801 -0.0259123 -1.01198e-08 3.2205e-09 5.18802e-09 -2.22167 -0.733487 0.20892 -2.03217e-16 0.0 -3.88251e-19 -11.1576 1.85257 -3.31301 -0.00318591 9.152 0.133159 -1.05196 -14.9985 -2.75369 2.03217e-16 0.0 3.88251e-19 -0.506822 10.1931 1.52999 -0.00834262 -3.72005 -0.021387 3.92584 -9.31385 15.3225
-158.858 85.6024 5.34916 40.2863 83.9779 39.7581 -7.5702 3.89729 4.73401 2.56112 -3.37696 1.54494 6.42099 -4.92547 3.04794 -4.01273 8.49861 4.73165 -0.0 0.0 0.0 -0.0 0.0 0.0 2.69328e-14 4.23531e-12 8.80531e-14 89.8052 35.5235 -2.65093 -14.6135 -7.2178 27.0877 -0.0266176 4.51005 0.635255 4.47679e-09 2.57882e-10 -6.07874e-09 7.70736e-09 4.4726e-10 -1.05332e-08 4.47679e-09 2.57879e-10 -6.07875e-09 7.73091 5.47488 0.417314 4.47679e-09 2.57877e-10 -6.07875e-09 2.90554 0.965183 0.102902 4.47679e-09 2.57876e-10 -6.07874e-09 10.2786 0.731801 0.0259123 4.47678e-09 2.5788e-10 -6.07874e-09 2.22167 -0.733487 -0.20892 2.69077e-14 4.23531e-12 8.79972e-14 -84.2586 38.9283 -1.40718 11.4725 -4.94583 -20.7377 0.34835 16.0531 -2.32172 -9.70099e-09 3.07674e-09 5.08849e-09 -1.67015e-08 5.3204e-09 8.91747e-09 -9.70099e-09 3.07674e-09 5.0885e-09 -7.73091 5.47488 -0.417314 -9.70098e-09 3.07674e-09 5.08848e-09 -2.90554 0.965183 -0.102902 -9.701e-09 3.07674e-09 5.08849e-09 -10.2786 0.731801 -0.0259123 -9.70099e-09 3.07674e-09 5.08849e-09 -2.22167 -0.733487 0.20892 -2.03217e-16 0.0 -3.88251e-19 -11.9788 2.51357 -3.51106 -0.00378234 9.25348 0.134862 -1.14826 -16.0426 -2.97108 2.03217e-16 0.0 3.88251e-19 -0.572964 11.0734 1.64938 -0.0104681 -3.8474 -0.0277675 4.44107 -10.19 16.4487
-158.856 85.6004 5.37865 39.0381 84.0565 38.5085 -7.43556 3.90689 4.7583 2.4835 -3.35471 1.54918 6.48303 -4.95717 3.00284 -4.06948 8.46849 4.61002 -0.0 0.0 0.0 -0.0 0.0 0.0 2.85209e-15 5.33659e-12 1.4115e-13 89.2063 35.1193 -2.60974 -14.5157 -7.16477 26.8536 -0.0275763 4.60695 0.648956 3.60911e-09 1.34106e-10 -4.81943e-09 6.21285e-09 2.32844e-10 -8.35141e-09 3.60911e-09 1.34103e-10 -4.81944e-09 7.73091 5.47488 0.417314 3.60911e-09 1.34102e-10 -4.81943e-09 2.90554 0.965183 0.102902 3.60912e-09 1.34102e-10 -4.81943e-09 10.2786 0.731801 0.0259123 3.60911e-09 1.34105e-10 -4.81943e-09 2.22167 -0.733487 -0.20892 2.80723e-15 5.33659e-12 1.41069e-13 -83.5427 38.8663 -1.41733 11.4334 -4.93535 -20.6469 0.335142 15.8053 -2.28345 -7.99238e-09 2.51825e-09 4.38264e-09 -1.37574e-08 4.35397e-09 7.67527e-09 -7.99239e-09 2.51825e-09 4.38266e-09 -7.73091 5.47488 -0.417314 -7.99238e-09 2.51825e-09 4.38264e-09 -2.90554 0.965183 -0.102902 -7.99239e-09 2.51826e-09 4.38264e-09 -10.2786 0.731801 -0.0259123 -7.99239e-09 2.51826e-09 4.38264e-09 -2.22167 -0.733487 0.20892 -2.03217e-16 0.0 -3.88251e-19 -11.7872 2.47363 -3.4545 -0.00376005 9.2286 0.134439 -1.14089 -15.9503 -2.95293 2.03217e-16 0.0 3.88251e-19 -0.465662 11.0208 1.64735 -0.0113311 -3.85222 -0.0265193 4.38333 -10.1012 16.3143
-158.849 85.6023 5.39195 38.4179 84.1069 37.8669 -7.01706 3.8107 4.6449 2.34535 -3.2361 1.51071 6.34699 -4.84699 2.86831 -3.98291 8.18932 4.34812 -0.0 0.0 0.0 -0.0 0.0 0.0 -2.09522e-14 5.92309e-12 1.80238e-13 85.9327 33.6749 -2.46406 -14.0843 -6.9458 25.8164 -0.0262509 4.57163 0.64391 2.55017e-09 5.38933e-12 -3.26106e-09 4.38934e-09 9.86567e-12 -5.65152e-09 2.55017e-09 5.38745e-12 -3.26107e-09 7.73091 5.47488 0.417314 2.55018e-09 5.38812e-12 -3.26106e-09 2.90554 0.965183 0.102902 2.55018e-09 5.38759e-12 -3.26106e-09 10.2786 0.731801 0.0259123 2.55017e-09 5.39159e-12 -3.26105e-09 2.22167 -0.733487 -0.20892 -2.102e-14 5.9231e-12 1.80123e-13 -80.4005 37.6687 -1.36657 11.1088 -4.79821 -19.945 0.294901 15.1055 -2.17525 -5.78353e-09 1.8089e-09 3.42651e-09 -9.95204e-09 3.12667e-09 5.99421e-09 -5.78355e-09 1.8089e-09 3.42653e-09 -7.73091 5.47488 -0.417314 -5.78353e-09 1.8089e-09 3.42651e-09 -2.90554 0.965183 -0.102902 -5.78354e-09 1.8089e-09 3.42652e-09 -10.2786 0.731801 -0.0259123 -5.78353e-09 1.8089e-09 3.42651e-09 -2.22167 -0.733487 0.20892 -2.03217e-16 0.0 -3.88251e-19 -11.2045 2.15278 -3.28905 -0.00348856 9.15448 0.133234 -1.09524 -15.4046 -2.85332 2.03217e-16 0.0 3.88251e-19 -0.305356 10.5911 1.59664 -0.0115654 -3.8044 -0.0222916 4.09535 -9.6237 15.6741
-158.845 85.6028 5.3743 38.9523 84.0636 38.4021 -6.77071 3.77246 4.57791 2.26325 -3.17084 1.48777 6.26129 -4.78706 2.78733 -3.91685 8.01697 4.18975 -0.0 0.0 0.0 -0.0 0.0 0.0 -3.37521e-14 5.33683e-12 1.76968e-13 83.9744 32.7915 -2.38447 -13.8184 -6.8089 25.1895 -0.0254971 4.55346 0.64131 1.73142e-09 -6.95396e-11 -1.98073e-09 2.98019e-09 -1.19907e-10 -3.43365e-09 1.73143e-09 -6.954e-11 -1.98074e-09 7.73091 5.47488 0.417314 1.73143e-09 -6.95387e-11 -1.98073e-09 2.90554 0.965183 0.102902 1.73143e-09 -6.95393e-11 -1.98073e-09 10.2786 0.731801 0.0259123 1.73142e-09 -6.95357e-11 -1.98073e-09 2.22167 -0.733487 -0.20892 -3.3837e-14 5.33684e-12 1.76819e-13 -78.508 36.9588 -1.34205 10.9115 -4.71397 -19.5223 0.273398 14.7213 -2.11619 -3.86395e-09 1.21253e-09 2.57614e-09 -6.64547e-09 2.09503e-09 4.49984e-09 -3.86397e-09 1.21253e-09 2.57616e-09 -7.73091 5.47488 -0.417314 -3.86396e-09 1.21253e-09 2.57614e-09 -2.90554 0.965183 -0.102902 -3.86396e-09 1.21253e-09 2.57614e-09 -10.2786 0.731801 -0.0259123 -3.86395e-09 1.21253e-09 2.57614e-09 -2.22167 -0.733487 0.20892 -2.03217e-16 0.0 -3.88251e-19 -10.8523 1.97108 -3.16056 -0.00333607 9.10828 0.132587 -1.07804 -15.0883 -2.8269 2.03217e-16 0.0 3.88251e-19 -0.213593 10.3405 1.57031 -0.0118119 -3.77383 -0.0197344 3.92531 -9.33202 15.2843
